Coordinates
version=1
nRows=24
nColumns=24
inDegrees=yes

Units are S.I. units (second, meters, Newtons, ...)
Angles are in degrees.

endheader
time	pelvis_tilt	pelvis_list	pelvis_rotation	pelvis_tx	pelvis_ty	pelvis_tz	hip_flexion_r	hip_adduction_r	hip_rotation_r	knee_angle_r	ankle_angle_r	subtalar_angle_r	mtp_angle_r	hip_flexion_l	hip_adduction_l	hip_rotation_l	knee_angle_l	ankle_angle_l	subtalar_angle_l	mtp_angle_l	lumbar_extension	lumbar_bending	lumbar_rotation
      1.58416667	     -1.07538715	      8.62539629	     -2.03757591	      0.47175424	      0.98617118	      0.29734716	     14.61780862	    -10.45562947	      1.27461180	    -68.29753916	      1.00129228	     -8.88272119	      1.88589989	     12.11447751	     14.19506928	     -0.69758907	    -14.16854355	      3.24760318	    -12.72049503	     -1.14179995	      2.42649352	     -6.65966326	      5.59188984
      1.58833333	     -1.00196020	      8.55576536	     -1.91736124	      0.47645019	      0.98688094	      0.29706062	     15.21082622	    -10.33055646	      1.31211553	    -68.25182016	      1.60099686	     -9.19841818	      1.88033091	     11.54800240	     14.17662624	     -0.49414923	    -13.87388731	      3.32914570	    -12.66657871	     -1.13772671	      2.29086242	     -6.59617901	      5.44672958
      1.59250000	     -0.93406584	      8.49377877	     -1.79218340	      0.48114538	      0.98755143	      0.29676882	     15.79985953	    -10.21493489	      1.34784775	    -68.16167743	      2.18908632	     -9.47039737	      1.87240319	     10.98524358	     14.16483704	     -0.28103197	    -13.57270958	      3.40114428	    -12.62803309	     -1.13452574	      2.16472468	     -6.54051281	      5.29398029
      1.59666667	     -0.82573749	      8.43545005	     -1.67314892	      0.48584769	      0.98826330	      0.29649031	     16.32954427	    -10.10368479	      1.38657276	    -68.01337617	      2.72603149	     -9.74293349	      1.84018244	     10.36026794	     14.15972091	     -0.02726731	    -13.23235613	      3.43853879	    -12.67110929	     -1.13378185	      1.99068873	     -6.50406745	      5.03761632
      1.60083333	     -0.77569417	      8.35501114	     -1.53405451	      0.49050373	      0.98885835	      0.29620068	     16.91329129	     -9.96703724	      1.41268967	    -67.82724945	      3.30991471	     -9.88523727	      1.83044305	      9.83310183	     14.12045149	      0.18087046	    -12.96301416	      3.52168709	    -12.61097411	     -1.13141466	      1.88043733	     -6.41717467	      4.93333751
      1.60500000	     -0.71049154	      8.28847034	     -1.39966358	      0.49516552	      0.98943670	      0.29592444	     17.47125400	     -9.84567489	      1.44573721	    -67.59985432	      3.87520453	    -10.02278640	      1.81720913	      9.28494486	     14.09381071	      0.40126589	    -12.68128444	      3.59813312	    -12.57051313	     -1.12993928	      1.75348640	     -6.35658283	      4.78201922
      1.60916667	     -0.65187517	      8.22564842	     -1.25931640	      0.49980452	      0.98995750	      0.29564157	     18.02778495	     -9.72991378	      1.47853115	    -67.33227215	      4.41870146	    -10.11925481	      1.80285879	      8.75125659	     14.06952876	      0.62359006	    -12.41057392	      3.67643965	    -12.54321606	     -1.12904250	      1.62991388	     -6.29979760	      4.61521373
      1.61333333	     -0.55832893	      8.18098048	     -1.12655629	      0.50446716	      0.99051436	      0.29536463	     18.53274593	     -9.63895093	      1.51468071	    -67.01577556	      4.91916479	    -10.15988412	      1.76559362	      8.15843295	     14.06621326	      0.88022936	    -12.09494172	      3.72563600	    -12.59064681	     -1.13285659	      1.47671223	     -6.27411343	      4.34546568
      1.61750000	     -0.53217128	      8.09224781	     -0.96443742	      0.50907137	      0.99094991	      0.29508243	     19.09248674	     -9.49389470	      1.53108873	    -66.65245348	      5.42125884	    -10.18786803	      1.75308255	      7.68032230	     14.00623659	      1.10765273	    -11.86701949	      3.81271370	    -12.53325458	     -1.13242694	      1.38794374	     -6.18128514	      4.23884220
      1.62166667	     -0.42849079	      8.03814096	     -0.82041711	      0.51370880	      0.99145812	      0.29480448	     19.55702111	     -9.39538362	      1.55694333	    -66.24788091	      5.90928199	    -10.16242676	      1.71902164	      7.09202662	     13.98564803	      1.35604236	    -11.58125608	      3.88484309	    -12.54334007	     -1.13711707	      1.21145930	     -6.13690012	      3.99018738
      1.62583333	     -0.37267285	      7.97580486	     -0.66706090	      0.51830907	      0.99186437	      0.29452493	     20.06566013	     -9.28977664	      1.57409844	    -65.80496059	      6.35859226	    -10.11494415	      1.68229552	      6.57411592	     13.95188350	      1.60350220	    -11.32952206	      3.96320008	    -12.54863227	     -1.14378838	      1.09816532	     -6.07926318	      3.79042313
      1.63000000	     -0.33499117	      7.89315208	     -0.49899943	      0.52289397	      0.99223703	      0.29425669	     20.57099381	     -9.15475710	      1.58797022	    -65.30988552	      6.78874547	    -10.08855619	      1.66730552	      6.09658038	     13.88995079	      1.83524497	    -11.12174134	      4.05906917	    -12.49834917	     -1.14568597	      0.99750949	     -6.00349444	      3.66954456
      1.63416667	     -0.25742877	      7.85499120	     -0.34903497	      0.52749728	      0.99260386	      0.29397112	     21.03286125	     -9.08358424	      1.60792599	    -64.79329914	      7.19145300	     -9.98516769	      1.62870975	      5.55056497	     13.87901901	      2.09524341	    -10.85548585	      4.13369942	    -12.53225776	     -1.15625129	      0.85285348	     -5.97067623	      3.39893230
      1.63833333	     -0.22173611	      7.76592530	     -0.17191913	      0.53206269	      0.99292269	      0.29371130	     21.50869769	     -8.94655317	      1.60904606	    -64.21153528	      7.56427883	     -9.94962948	      1.61353961	      5.08617526	     13.80349433	      2.32810257	    -10.66715883	      4.24214972	    -12.48681098	     -1.15919566	      0.75736002	     -5.88579105	      3.28376399
      1.64250000	     -0.15404430	      7.70594402	     -0.00759408	      0.53663748	      0.99324737	      0.29344472	     21.94270148	     -8.84938900	      1.61586370	    -63.60135277	      7.92993313	     -9.88269332	      1.59380344	      4.57498815	     13.75891421	      2.57212366	    -10.44876484	      4.34546864	    -12.47025050	     -1.16475427	      0.62146449	     -5.83052213	      3.09169708
      1.64666667	     -0.11375278	      7.65448591	      0.15968313	      0.54119096	      0.99349333	      0.29317698	     22.39818406	     -8.76309627	      1.62631689	    -62.95994217	      8.24288558	     -9.80909652	      1.57006167	      4.10031350	     13.72173302	      2.82425151	    -10.23934236	      4.44452146	    -12.47767624	     -1.17243427	      0.51751443	     -5.78389733	      2.88565257
      1.65083333	     -0.05166254	      7.60968258	      0.31504339	      0.54575411	      0.99374342	      0.29291343	     22.81813989	     -8.68816592	      1.63646597	    -62.28235243	      8.49611152	     -9.72952335	      1.52105208	      3.58920874	     13.69075158	      3.09010357	    -10.00111888	      4.53311417	    -12.52409334	     -1.19028366	      0.38437330	     -5.74151309	      2.60000932
      1.65500000	     -0.02332749	      7.54805651	      0.49393914	      0.55029075	      0.99393461	      0.29265252	     23.25017941	     -8.59500555	      1.63067881	    -61.55909241	      8.75845103	     -9.70897892	      1.49529286	      3.14845378	     13.63447638	      3.32767580	     -9.83357031	      4.65173861	    -12.49868741	     -1.19844590	      0.29872681	     -5.68320110	      2.47539394
      1.65916667	      0.04451285	      7.48433782	      0.66124488	      0.55485434	      0.99417776	      0.29240341	     23.61735238	     -8.50184781	      1.62183123	    -60.78942751	      8.97899364	     -9.69578985	      1.46330189	      2.65199551	     13.57234860	      3.56954796	     -9.64033916	      4.76911542	    -12.48254700	     -1.20880932	      0.16197197	     -5.61825435	      2.28505847
      1.66333333	      0.11252447	      7.45110140	      0.81451906	      0.55940187	      0.99436278	      0.29216735	     23.98551925	     -8.44208906	      1.62724618	    -60.00554263	      9.15580724	     -9.69618688	      1.39928686	      2.14437563	     13.54195754	      3.82917938	     -9.41641727	      4.87008053	    -12.52062563	     -1.23178958	      0.02091549	     -5.59029629	      1.99779226
      1.66750000	      0.11125345	      7.40046049	      0.99218169	      0.56391599	      0.99443420	      0.29192347	     24.41020690	     -8.36780350	      1.61448028	    -59.18794274	      9.33156900	     -9.71741703	      1.36465627	      1.74772322	     13.48769218	      4.06178566	     -9.26596306	      5.00286317	    -12.49304538	     -1.24172831	     -0.03620952	     -5.54314855	      1.88055428
      1.67166667	      0.17139763	      7.34835130	      1.15936276	      0.56845197	      0.99458387	      0.29168434	     24.74227809	     -8.29455871	      1.59667590	    -58.32251034	      9.47628567	     -9.78155919	      1.31762317	      1.27358544	     13.42921381	      4.30513462	     -9.09515222	      5.13810177	    -12.47573063	     -1.25561478	     -0.16533647	     -5.48720894	      1.68356103
      1.67583333	      0.22454440	      7.30364350	      1.31715268	      0.57299247	      0.99470348	      0.29146560	     25.07014100	     -8.22738357	      1.58452956	    -57.42805827	      9.58702501	     -9.86622395	      1.26539581	      0.80427964	     13.37407787	      4.54062881	     -8.91575511	      5.26678934	    -12.45846411	     -1.27036890	     -0.28326261	     -5.43958347	      1.48865168
      1.68000000	      0.27925817	      7.27406603	      1.47237151	      0.57751373	      0.99478301	      0.29125003	     25.38800681	     -8.18062060	      1.56990591	    -56.51635662	      9.68398421	     -9.98162425	      1.20159617	      0.33580939	     13.33238345	      4.77883166	     -8.73748392	      5.39462630	    -12.44854050	     -1.28854909	     -0.40725329	     -5.41356574	      1.28247066
